<svg width="24" height="20" viewBox="0 0 24 20" fill="none" xmlns="http://www.w3.org/2000/svg">
<path fill-rule="evenodd" clip-rule="evenodd" d="M24 2.50577C23.117 2.90077 22.1688 3.16737 21.1718 3.28594C22.1883 2.67268 22.9692 1.70144 23.3376 0.544402C22.3856 1.11159 21.3323 1.52547 20.2108 1.74675C19.3121 0.783815 18.0323 0.181885 16.6152 0.181885C13.8957 0.181885 11.6924 2.40079 11.6924 5.13856C11.6924 5.52675 11.7352 5.90589 11.8192 6.2684C7.72693 6.06147 4.09902 4.08801 1.66992 1.08893C1.24681 1.82152 1.00375 2.67268 1.00375 3.58124C1.00375 5.30169 1.87322 6.81822 3.19355 7.7079C2.3871 7.68147 1.62791 7.45942 0.963991 7.08784C0.963241 7.10823 0.963241 7.13014 0.963241 7.14977C0.963241 9.55221 2.66017 11.5559 4.91298 12.0113C4.50038 12.1238 4.06527 12.185 3.6159 12.185C3.29782 12.185 2.99025 12.154 2.69017 12.0966C3.31583 14.0648 5.13503 15.4982 7.28882 15.539C5.60465 16.8683 3.48162 17.662 1.17479 17.662C0.777194 17.662 0.384846 17.6386 0 17.5925C2.17854 18.9973 4.76669 19.8182 7.54764 19.8182C16.6039 19.8182 21.5574 12.265 21.5574 5.71405C21.5574 5.49956 21.5514 5.28507 21.5424 5.07209C22.5049 4.37349 23.3391 3.50119 24 2.50577Z" fill="white"/>
</svg>
