<svg width="22" height="22" viewBox="0 0 22 22" fill="none" xmlns="http://www.w3.org/2000/svg">
<path d="M15.8182 7.0455C16.5462 7.0455 17.1364 6.45533 17.1364 5.72732C17.1364 4.99931 16.5462 4.40914 15.8182 4.40914C15.0902 4.40914 14.5 4.99931 14.5 5.72732C14.5 6.45533 15.0902 7.0455 15.8182 7.0455Z" fill="white"/>
<path fill-rule="evenodd" clip-rule="evenodd" d="M5.27273 11C5.27273 8.09013 7.63554 5.72732 10.5455 5.72732C13.4554 5.72732 15.8182 8.09013 15.8182 11C15.8182 13.91 13.4554 16.2728 10.5455 16.2728C7.63554 16.2728 5.27273 13.91 5.27273 11ZM7.90909 11C7.90909 12.4586 9.09301 13.6364 10.5455 13.6364C11.9979 13.6364 13.1818 12.4525 13.1818 11C13.1818 9.5415 12.004 8.36368 10.5455 8.36368C9.08691 8.36368 7.90909 9.5476 7.90909 11Z" fill="white"/>
<path fill-rule="evenodd" clip-rule="evenodd" d="M20.5367 4.08927C20.2678 3.39656 19.9092 2.8098 19.3225 2.22303C18.7357 1.63627 18.1489 1.27769 17.4562 1.00876C16.788 0.747972 16.0138 0.568683 14.8973 0.519786L14.8783 0.518962C13.7685 0.470706 13.3979 0.45459 10.5455 0.45459C7.67683 0.45459 7.31825 0.462739 6.19362 0.519786C5.06899 0.568683 4.30294 0.747972 3.63468 1.00876C2.94197 1.27769 2.35521 1.63627 1.76844 2.22303C1.18168 2.8098 0.8231 3.39656 0.554166 4.08927C0.293382 4.75753 0.114093 5.53173 0.065196 6.64821L0.0643719 6.66716C0.0161157 7.77697 0 8.1476 0 11C0 13.8687 0.0081495 14.2272 0.065196 15.3519C0.114093 16.4765 0.293382 17.2426 0.554166 17.9108C0.8231 18.6035 1.18168 19.1903 1.76844 19.7771C2.35521 20.3638 2.94197 20.7224 3.63468 20.9913C4.30294 21.2521 5.07714 21.4314 6.19362 21.4803L6.21256 21.4811C7.32237 21.5294 7.693 21.5455 10.5455 21.5455C13.4141 21.5455 13.7727 21.5373 14.8973 21.4803C16.0219 21.4314 16.788 21.2521 17.4562 20.9913C18.1489 20.7224 18.7357 20.3638 19.3225 19.7771C19.9092 19.1903 20.2678 18.6035 20.5367 17.9108C20.7975 17.2426 20.9768 16.4684 21.0257 15.3519L21.0265 15.3329C21.0748 14.2231 21.0909 13.8525 21.0909 11C21.0909 8.13142 21.0828 7.77284 21.0257 6.64821C20.9768 5.52358 20.7975 4.75753 20.5367 4.08927ZM18.395 14.895C18.3503 15.8334 18.1939 16.3472 18.0598 16.6824C17.8885 17.1292 17.6726 17.4569 17.3374 17.792C17.0023 18.1272 16.6821 18.3357 16.2278 18.5144C15.8852 18.6485 15.3788 18.8049 14.4404 18.8496L14.3919 18.8517C13.41 18.8947 13.0809 18.9091 10.5455 18.9091C7.96867 18.9091 7.66333 18.9017 6.65049 18.8496C5.71212 18.8049 5.19825 18.6485 4.86312 18.5144C4.41628 18.3431 4.0886 18.1272 3.75347 17.792C3.41834 17.4569 3.20981 17.1367 3.03107 16.6824C2.89702 16.3398 2.74063 15.8334 2.69594 14.895L2.69418 14.8547C2.65087 13.8662 2.63636 13.5352 2.63636 11C2.63636 8.43071 2.64381 8.11792 2.69594 7.10508C2.74063 6.16671 2.89702 5.65284 3.03107 5.31771C3.20236 4.87087 3.41834 4.54319 3.75347 4.20806C4.0886 3.87293 4.40883 3.6644 4.86312 3.48566C5.2057 3.35161 5.71212 3.19522 6.65049 3.15053L6.69079 3.14877C7.67929 3.10546 8.01025 3.09095 10.5455 3.09095C13.1148 3.09095 13.4276 3.0984 14.4404 3.15053C15.3788 3.19522 15.8927 3.35161 16.2278 3.48566C16.6746 3.65695 17.0023 3.87293 17.3374 4.20806C17.6726 4.54319 17.8811 4.86342 18.0598 5.31771C18.1939 5.66029 18.3503 6.16671 18.395 7.10508L18.3967 7.14536C18.44 8.13388 18.4545 8.46483 18.4545 11C18.4545 13.5449 18.4399 13.876 18.3962 14.8662L18.395 14.895Z" fill="white"/>
</svg>
