<svg width="27" height="15" viewBox="0 0 27 15" fill="none" xmlns="http://www.w3.org/2000/svg">
<path fill-rule="evenodd" clip-rule="evenodd" d="M23.2373 9.53768C24.133 10.3961 25.0783 11.2038 25.8815 12.1487C26.2364 12.5687 26.5723 13.002 26.8293 13.4894C27.1935 14.1822 26.8637 14.9445 26.2309 14.9859L22.2975 14.9842C21.283 15.0668 20.4737 14.6658 19.7932 13.9849C19.2486 13.4403 18.7442 12.8608 18.2206 12.2978C18.0059 12.0678 17.7812 11.8513 17.5128 11.6801C16.9758 11.338 16.5097 11.4427 16.2029 11.9925C15.8903 12.5517 15.8194 13.1709 15.7887 13.7941C15.7466 14.7034 15.4666 14.9424 14.5362 14.9841C12.5479 15.0761 10.6608 14.7808 8.90781 13.7961C7.36229 12.928 6.16381 11.7025 5.12066 10.3151C3.08963 7.61356 1.53426 4.645 0.136359 1.59327C-0.178298 0.905713 0.0518178 0.536635 0.824577 0.523572C2.10778 0.4991 3.3908 0.500842 4.67551 0.521831C5.19704 0.52932 5.5423 0.82298 5.74368 1.30667C6.43793 2.9825 7.28742 4.5769 8.35372 6.05478C8.63769 6.44824 8.92724 6.8417 9.33957 7.11864C9.79572 7.42528 10.143 7.32365 10.3576 6.82481C10.4938 6.50851 10.5534 6.16782 10.5841 5.82905C10.6858 4.66355 10.6991 3.50006 10.5208 2.33866C10.4114 1.61382 9.99549 1.1446 9.25875 1.00743C8.8828 0.9375 8.93877 0.800163 9.12081 0.589498C9.43697 0.226167 9.73433 0 10.3271 0H14.7725C15.4723 0.135596 15.6277 0.444235 15.7235 1.13554L15.7274 5.98311C15.7197 6.25073 15.8635 7.04488 16.3545 7.22202C16.7475 7.34812 17.0066 7.03948 17.2424 6.79485C18.3067 5.68588 19.0663 4.37529 19.745 3.0182C20.0462 2.42148 20.3051 1.80176 20.5561 1.18257C20.742 0.72309 21.0338 0.49701 21.561 0.507025L25.8394 0.51077C25.9663 0.51077 26.0946 0.512599 26.2175 0.533239C26.9384 0.653855 27.136 0.958315 26.9133 1.64944C26.5625 2.73377 25.8799 3.6374 25.2124 4.5452C24.4989 5.5144 23.7358 6.45042 23.0283 7.42537C22.3782 8.31567 22.4298 8.76443 23.2373 9.53768Z" fill="white"/>
</svg>
